<?xml version="1.0" encoding="UTF-8"?>
<!DOCTYPE svg PUBLIC "-//W3C//DTD SVG 1.1//EN" "http://www.w3.org/Graphics/SVG/1.1/DTD/svg11.dtd">
<!-- Creator: CorelDRAW 2017 -->
<svg xmlns="http://www.w3.org/2000/svg" xml:space="preserve" width="61.2085mm" height="47.968mm" version="1.1" style="shape-rendering:geometricPrecision; text-rendering:geometricPrecision; image-rendering:optimizeQuality; fill-rule:evenodd; clip-rule:evenodd"
viewBox="0 0 889.67 697.22"
 xmlns:xlink="http://www.w3.org/1999/xlink">
 <defs>
  <style type="text/css">
   <![CDATA[
    .fil47 {fill:none;fill-rule:nonzero}
    .fil22 {fill:#052438;fill-rule:nonzero}
    .fil14 {fill:#0F6890;fill-rule:nonzero}
    .fil43 {fill:#1066A6;fill-rule:nonzero}
    .fil23 {fill:#112D3F;fill-rule:nonzero}
    .fil53 {fill:#125F65;fill-rule:nonzero}
    .fil35 {fill:#127D6D;fill-rule:nonzero}
    .fil29 {fill:#168170;fill-rule:nonzero}
    .fil12 {fill:#1F8C77;fill-rule:nonzero}
    .fil55 {fill:#2292A0;fill-rule:nonzero}
    .fil46 {fill:#2C5F82;fill-rule:nonzero}
    .fil11 {fill:#2EB5A7;fill-rule:nonzero}
    .fil13 {fill:#3180B9;fill-rule:nonzero}
    .fil1 {fill:#3B4651;fill-rule:nonzero}
    .fil60 {fill:#443414;fill-rule:nonzero}
    .fil24 {fill:#497692;fill-rule:nonzero}
    .fil33 {fill:#4C7A97;fill-rule:nonzero}
    .fil25 {fill:#4E7A95;fill-rule:nonzero}
    .fil34 {fill:#517E9A;fill-rule:nonzero}
    .fil52 {fill:#548728;fill-rule:nonzero}
    .fil20 {fill:#6A4C44;fill-rule:nonzero}
    .fil21 {fill:#6A7B8B;fill-rule:nonzero}
    .fil61 {fill:#6B5338;fill-rule:nonzero}
    .fil15 {fill:#6E6C71;fill-rule:nonzero}
    .fil62 {fill:#70593F;fill-rule:nonzero}
    .fil51 {fill:#7AB149;fill-rule:nonzero}
    .fil8 {fill:#809292;fill-rule:nonzero}
    .fil26 {fill:#843436;fill-rule:nonzero}
    .fil10 {fill:#888419;fill-rule:nonzero}
    .fil59 {fill:#898688;fill-rule:nonzero}
    .fil27 {fill:#8A3839;fill-rule:nonzero}
    .fil36 {fill:#8B3536;fill-rule:nonzero}
    .fil39 {fill:#8B8B8B;fill-rule:nonzero}
    .fil30 {fill:#8D5B4E;fill-rule:nonzero}
    .fil37 {fill:#903939;fill-rule:nonzero}
    .fil28 {fill:#906A21;fill-rule:nonzero}
    .fil31 {fill:#915E50;fill-rule:nonzero}
    .fil32 {fill:#937234;fill-rule:nonzero}
    .fil48 {fill:#A04646;fill-rule:nonzero}
    .fil19 {fill:#AFAAAC;fill-rule:nonzero}
    .fil40 {fill:#B3B3B3;fill-rule:nonzero}
    .fil38 {fill:#B3BAC1;fill-rule:nonzero}
    .fil45 {fill:#BA6E6E;fill-rule:nonzero}
    .fil9 {fill:#BECF21;fill-rule:nonzero}
    .fil18 {fill:#C0B7BA;fill-rule:nonzero}
    .fil5 {fill:#CE5D4F;fill-rule:nonzero}
    .fil44 {fill:#CE8080;fill-rule:nonzero}
    .fil16 {fill:#D2D3D5;fill-rule:nonzero}
    .fil50 {fill:#DA9E9E;fill-rule:nonzero}
    .fil17 {fill:#DCD7D4;fill-rule:nonzero}
    .fil6 {fill:#E05F25;fill-rule:nonzero}
    .fil3 {fill:#E1E3E2;fill-rule:nonzero}
    .fil58 {fill:#E2D9DE;fill-rule:nonzero}
    .fil4 {fill:#E7E4F9;fill-rule:nonzero}
    .fil49 {fill:#E7EEF5;fill-rule:nonzero}
    .fil7 {fill:#F1F6FA;fill-rule:nonzero}
    .fil57 {fill:#F5991E;fill-rule:nonzero}
    .fil41 {fill:#FABA85;fill-rule:nonzero}
    .fil56 {fill:#FCAB26;fill-rule:nonzero}
    .fil2 {fill:#FE6555;fill-rule:nonzero}
    .fil42 {fill:#FFB7A9;fill-rule:nonzero}
    .fil54 {fill:white;fill-rule:nonzero}
    .fil0 {fill:#91DEAB;fill-rule:nonzero;fill-opacity:0.501961}
   ]]>
  </style>
 </defs>
 <g id="Layer_x0020_1">
  <metadata id="CorelCorpID_0Corel-Layer"/>
  <g id="_2891719390928">
   <path class="fil0" d="M787.13 675.8c0,0 170.01,-139.18 72.2,-303.34 -97.81,-164.16 -291.11,-83.35 -291.11,-83.35 0,0 -9.32,-211.91 -223.58,-278.7 -214.26,-66.79 -353.99,204.15 -223.58,337.06 0,0 -225.91,123.02 -60.55,328.32l726.62 0z"/>
   <polygon class="fil1" points="330.87,241.83 475.27,241.83 475.27,233.14 330.87,233.14 "/>
   <polygon class="fil2" points="453.35,231.68 465.31,223.08 420.86,161.29 408.9,169.88 "/>
   <path class="fil3" d="M444.4 206.63l0.46 -0.33c1.75,-1.26 2.14,-3.69 0.89,-5.43l-14.42 -20.05c-1.25,-1.75 -3.69,-2.14 -5.43,-0.89l-0.46 0.33c-1.75,1.25 -2.14,3.69 -0.89,5.43l14.42 20.05c1.25,1.75 3.69,2.14 5.43,0.89z"/>
   <polygon class="fil4" points="451.89,229.65 463.84,221.04 462.38,219.01 450.42,227.61 "/>
   <polygon class="fil4" points="449.4,226.19 461.36,217.59 459.9,215.56 447.94,224.16 "/>
   <polygon class="fil5" points="453.35,231.68 450.34,233.85 405.89,172.05 408.9,169.88 "/>
   <path class="fil6" d="M432.15 181.96l1.43 1.99 -6.78 4.88 -1.43 -1.99c-0.72,-1 -1.1,-2.1 -1.18,-3.15l5.35 -3.85c0.97,0.41 1.9,1.13 2.61,2.12z"/>
   <path class="fil6" d="M444.16 198.66l0.77 1.06c0.31,0.43 0.56,0.89 0.75,1.35l-6.49 4.67c-0.38,-0.33 -0.73,-0.71 -1.04,-1.14l-0.77 -1.06 6.78 -4.88z"/>
   <path class="fil7" d="M434.09 195.56c0.9,1.25 2.42,1.69 3.41,0.98 0.98,-0.71 1.05,-2.29 0.15,-3.54 -0.9,-1.25 -2.42,-1.68 -3.4,-0.98 -0.98,0.71 -1.05,2.29 -0.16,3.54z"/>
   <path class="fil8" d="M434.65 195.16c0.61,0.85 1.65,1.15 2.32,0.67 0.67,-0.48 0.72,-1.56 0.11,-2.42 -0.61,-0.85 -1.65,-1.15 -2.32,-0.67 -0.67,0.48 -0.72,1.56 -0.11,2.42z"/>
   <polygon class="fil9" points="345.68,233.85 362.39,233.85 362.39,153.52 345.68,153.52 "/>
   <path class="fil3" d="M354.32 206.87l0.08 0c2.59,0 4.69,-2.1 4.69,-4.7l0 -24.88c0,-2.6 -2.1,-4.69 -4.69,-4.69l-0.08 0c-2.59,0 -4.69,2.1 -4.69,4.69l0 24.88c0,2.59 2.1,4.7 4.69,4.7z"/>
   <polygon class="fil4" points="345.68,231.2 362.39,231.2 362.39,228.56 345.68,228.56 "/>
   <polygon class="fil4" points="345.68,226.71 362.39,226.71 362.39,224.07 345.68,224.07 "/>
   <polygon class="fil10" points="341.47,233.85 345.68,233.85 345.68,153.52 341.47,153.52 "/>
   <path class="fil6" d="M359.09 178.19l0 2.59 -9.47 0 0 -2.59c0,-1.29 0.38,-2.48 1,-3.43l7.47 0c0.62,0.95 1,2.13 1,3.43z"/>
   <path class="fil6" d="M359.09 199.9l0 1.38c0,0.56 -0.07,1.11 -0.2,1.62l-9.06 0c-0.13,-0.51 -0.2,-1.06 -0.2,-1.62l0 -1.38 9.47 0z"/>
   <path class="fil7" d="M351.87 191.04c0,1.62 1.11,2.94 2.49,2.94 1.37,0 2.49,-1.32 2.49,-2.94 0,-1.62 -1.11,-2.93 -2.49,-2.93 -1.37,0 -2.49,1.31 -2.49,2.93z"/>
   <path class="fil8" d="M352.66 191.04c0,1.11 0.76,2 1.7,2 0.94,0 1.7,-0.9 1.7,-2 0,-1.11 -0.76,-2 -1.7,-2 -0.94,0 -1.7,0.9 -1.7,2z"/>
   <polygon class="fil11" points="366.59,233.85 383.3,233.85 383.3,153.52 366.59,153.52 "/>
   <path class="fil3" d="M375.23 206.87l0.08 0c2.59,0 4.7,-2.1 4.7,-4.7l0 -24.88c0,-2.6 -2.1,-4.69 -4.7,-4.69l-0.08 0c-2.59,0 -4.7,2.1 -4.7,4.69l0 24.88c0,2.59 2.1,4.7 4.7,4.7z"/>
   <polygon class="fil4" points="366.59,231.2 383.3,231.2 383.3,228.56 366.59,228.56 "/>
   <polygon class="fil4" points="366.59,226.71 383.3,226.71 383.3,224.07 366.59,224.07 "/>
   <polygon class="fil12" points="362.39,233.85 366.59,233.85 366.59,153.52 362.39,153.52 "/>
   <path class="fil6" d="M380 178.19l0 2.59 -9.47 0 0 -2.59c0,-1.29 0.38,-2.48 1,-3.43l7.47 0c0.63,0.95 1,2.13 1,3.43z"/>
   <path class="fil6" d="M380 199.9l0 1.38c0,0.56 -0.07,1.11 -0.2,1.62l-9.06 0c-0.13,-0.51 -0.2,-1.06 -0.2,-1.62l0 -1.38 9.47 0z"/>
   <path class="fil7" d="M372.78 191.04c0,1.62 1.11,2.94 2.49,2.94 1.37,0 2.49,-1.32 2.49,-2.94 0,-1.62 -1.11,-2.93 -2.49,-2.93 -1.37,0 -2.49,1.31 -2.49,2.93z"/>
   <path class="fil8" d="M373.57 191.04c0,1.11 0.76,2 1.7,2 0.94,0 1.7,-0.9 1.7,-2 0,-1.11 -0.76,-2 -1.7,-2 -0.94,0 -1.7,0.9 -1.7,2z"/>
   <polygon class="fil13" points="387.51,233.85 404.21,233.85 404.21,153.52 387.51,153.52 "/>
   <path class="fil3" d="M396.14 206.87l0.08 0c2.59,0 4.7,-2.1 4.7,-4.7l0 -24.88c0,-2.6 -2.1,-4.69 -4.7,-4.69l-0.08 0c-2.59,0 -4.69,2.1 -4.69,4.69l0 24.88c0,2.59 2.1,4.7 4.69,4.7z"/>
   <polygon class="fil4" points="387.51,231.2 404.21,231.2 404.21,228.56 387.51,228.56 "/>
   <polygon class="fil4" points="387.51,226.71 404.21,226.71 404.21,224.07 387.51,224.07 "/>
   <polygon class="fil14" points="383.3,233.85 387.51,233.85 387.51,153.52 383.3,153.52 "/>
   <path class="fil6" d="M400.92 178.19l0 2.59 -9.47 0 0 -2.59c0,-1.29 0.38,-2.48 1,-3.43l7.47 0c0.62,0.95 1,2.13 1,3.43z"/>
   <path class="fil6" d="M400.92 199.9l0 1.38c0,0.56 -0.07,1.11 -0.2,1.62l-9.06 0c-0.13,-0.51 -0.2,-1.06 -0.2,-1.62l0 -1.38 9.47 0z"/>
   <path class="fil7" d="M393.69 191.04c0,1.62 1.11,2.94 2.49,2.94 1.37,0 2.49,-1.32 2.49,-2.94 0,-1.62 -1.11,-2.93 -2.49,-2.93 -1.37,0 -2.49,1.31 -2.49,2.93z"/>
   <path class="fil8" d="M394.48 191.04c0,1.11 0.76,2 1.7,2 0.94,0 1.7,-0.9 1.7,-2 0,-1.11 -0.76,-2 -1.7,-2 -0.94,0 -1.7,0.9 -1.7,2z"/>
   <polygon class="fil15" points="393.18,409.96 350.33,411.08 459.58,411.87 517.2,410.61 "/>
   <path class="fil16" d="M350.59 416.26l115.76 0 0 -5.01 -115.76 0c-1.38,0 -2.5,1.12 -2.5,2.5 0,1.39 1.12,2.51 2.5,2.51z"/>
   <path class="fil17" d="M466.35 411.25l-1.1 0c-2.4,0.67 -18.68,2.84 -24.76,2.9 -48.26,0.46 -88.31,2.11 -88.31,2.11l114.17 0 0 -5.01z"/>
   <path class="fil18" d="M467.2 416.2l51.2 -0.69c1.75,-0.02 3.14,-0.93 3.09,-2.02l-0.04 -1.08c-0.05,-1.08 -1.48,-1.93 -3.21,-1.91l-51.24 0.68c-1.93,0.03 -3.46,1.04 -3.41,2.24l0.02 0.64c0.05,1.21 1.66,2.16 3.58,2.12z"/>
   <path class="fil19" d="M474.38 416.1l44.02 -0.59c1.75,-0.02 3.14,-0.93 3.09,-2.02l-0.04 -1.08c-0.05,-1.08 -1.48,-1.93 -3.21,-1.91l-3.05 0.04c-5.86,3.87 -40.81,5.55 -40.81,5.55z"/>
   <polygon class="fil20" points="480.85,414.15 498.81,414.15 498.81,412.94 480.85,412.94 "/>
   <polygon class="fil20" points="468.42,414.15 476.31,414.15 476.31,412.94 468.42,412.94 "/>
   <path class="fil20" d="M504.19 413.55c0,0.37 -0.32,0.67 -0.73,0.67 -0.4,0 -0.73,-0.3 -0.73,-0.67 0,-0.38 0.33,-0.68 0.73,-0.68 0.41,0 0.73,0.3 0.73,0.68z"/>
   <path class="fil15" d="M517.01 410.26l-118.42 0c-2.11,0 -3.68,-1.93 -3.25,-3.98l19.27 -91.12c0.32,-1.53 1.68,-2.62 3.24,-2.62l118.42 0c2.11,0 3.68,1.93 3.25,3.98l-19.27 91.13c-0.32,1.52 -1.68,2.62 -3.25,2.62z"/>
   <path class="fil21" d="M515.43 408.35l-116.89 0c-2.08,0 -3.63,-1.89 -3.2,-3.9l19.02 -89.34c0.32,-1.5 1.66,-2.57 3.2,-2.57l116.89 0c2.08,0 3.63,1.89 3.2,3.9l-19.02 89.34c-0.32,1.5 -1.66,2.57 -3.2,2.57z"/>
   <path class="fil22" d="M510.84 404.12l-106.29 0c-1.89,0 -3.3,-1.72 -2.91,-3.54l17.3 -81.04c0.29,-1.36 1.51,-2.33 2.91,-2.33l106.29 0c1.89,0 3.3,1.71 2.91,3.54l-17.3 81.04c-0.29,1.36 -1.5,2.33 -2.91,2.33z"/>
   <path class="fil23" d="M501.21 404.12l-16.52 0 -14.63 -29.28 10.16 0.25 0.11 -4.14 -12.07 -0.3 -0.01 0.55 -12.97 -25.96 16.43 -0.14 -0.03 -4.14 -18.46 0.15 -11.94 -23.9 35.87 0 33.86 66.76 -11.41 0 1.61 20.14zm-24.8 -47.79l-13.04 0.02 0 4.14 13.04 -0.01 -0.01 -4.15zm10.66 -15.51l-11.02 0.09 0.04 4.14 11.02 -0.09 -0.03 -4.14z"/>
   <path class="fil23" d="M456.36 404.12l-18.12 0 -8.11 -16.23 2.45 -0.83 0.02 -0.24 0.11 -1.1 -5.07 -2.92 -0.01 0.1 -0.61 -1.23 0.07 -0.18 -0.17 -0.01 -3.9 -7.81 15.56 0.39 0.1 -4.14 -17.76 -0.44 -8.88 -17.77 1.26 -5.89 4.17 -19.53 7.52 15.05 -4.23 0.04 0.04 4.14 6.25 -0.05 5.94 11.89 0 3.18 1.58 0 21.77 43.58zm-27.4 -47.71l-9.76 0.01 0.01 4.14 9.76 -0.01 -0.01 -4.14zm0.45 30.05l-0.54 -1.08 1.46 0.79 -0.92 0.29z"/>
   <polygon class="fil24" points="427.07,345.47 425.01,341.34 436.35,341.25 436.38,345.39 "/>
   <polygon class="fil25" points="420.82,345.52 420.79,341.38 425.01,341.34 427.07,345.47 "/>
   <polygon class="fil26" points="440.76,345.36 440.72,341.21 453.22,341.11 455.28,345.23 "/>
   <polygon class="fil27" points="455.28,345.23 453.22,341.11 471.68,340.95 471.71,345.1 "/>
   <polygon class="fil28" points="476.09,345.06 476.06,340.92 487.08,340.82 487.11,344.97 "/>
   <polygon class="fil29" points="419.22,360.56 419.21,356.42 428.97,356.4 428.97,360.55 "/>
   <polygon class="fil30" points="434.6,360.54 433.01,357.36 433.01,356.39 459.09,356.36 459.09,360.5 "/>
   <polygon class="fil31" points="433.01,360.54 433.01,357.36 434.6,360.54 "/>
   <polygon class="fil32" points="463.38,360.49 463.38,356.35 476.42,356.33 476.43,360.48 "/>
   <polygon class="fil33" points="423.04,373.67 417.28,373.53 417.38,369.39 420.94,369.48 "/>
   <polygon class="fil34" points="438.6,374.06 423.04,373.67 420.94,369.48 438.7,369.91 "/>
   <polygon class="fil35" points="463.7,374.67 442.76,374.16 442.87,370.02 463.81,370.53 "/>
   <polygon class="fil36" points="470.07,374.83 468.16,374.79 468.25,371.19 "/>
   <polygon class="fil37" points="480.23,375.09 470.07,374.83 468.25,371.19 468.27,370.64 480.33,370.94 "/>
   <polygon class="fil38" points="427.04,381.67 426.94,381.48 427.11,381.5 "/>
   <polygon class="fil39" points="169.32,675.8 154.71,675.8 195.63,433.44 210.24,433.44 "/>
   <polygon class="fil40" points="165.54,675.8 150.93,675.8 191.84,433.44 206.45,433.44 "/>
   <polygon class="fil39" points="322,675.8 336.61,675.8 295.7,433.44 281.09,433.44 "/>
   <polygon class="fil40" points="317.22,675.8 331.83,675.8 290.92,433.44 276.31,433.44 "/>
   <path class="fil1" d="M161.7 433.08l454.38 0c3.86,0 6.98,-3.13 6.98,-6.99l0 -2.66c0,-3.86 -3.12,-6.98 -6.98,-6.98l-454.38 0c-3.86,0 -6.99,3.13 -6.99,6.98l0 2.66c0,3.85 3.13,6.99 6.99,6.99z"/>
   <path class="fil41" d="M419.73 400.52c0,0 17.46,-2.02 30.37,1.56 12.9,3.58 14.25,10.75 12.1,12.18 -2.15,1.43 -28.6,-3.25 -35.52,3.47 -6.92,6.72 -10.99,3.35 -10.99,3.35l4.05 -20.56z"/>
   <path class="fil41" d="M412.55 629.09c0,0 14.21,16.72 15.12,17.8 0.92,1.08 51.46,12.19 45.72,21.87 -5.73,9.68 -79.93,5.74 -80.64,0 -0.72,-5.74 0,-16.9 0,-16.9l-7.11 -14.7 26.91 -8.07z"/>
   <path class="fil42" d="M330.85 471.07c0,0 -0.59,-32.44 -3.1,-47.14 0,0 11.95,0.07 14.1,0.94l76.44 0c0,0 5.11,-18.85 0,-28.17l-64.01 -5.38c0,0 -41.1,-43.97 -49.7,-46.71 -8.6,-2.75 -73.12,-19.59 -91.4,-0.06 -18.28,19.53 43.37,128.14 43.37,128.14 0,0 72.04,6.09 74.31,-1.62z"/>
   <path class="fil41" d="M474.2 629.09c0,0 14.21,16.72 15.12,17.8 0.92,1.08 51.46,12.19 45.72,21.87 -5.73,9.68 -79.93,5.74 -80.65,0 -0.71,-5.74 0,-16.9 0,-16.9l-7.1 -14.7 26.91 -8.07z"/>
   <path class="fil43" d="M261.2 470.9c7.89,-5.02 124.36,-18.65 140.65,12.52 5.86,11.22 26.71,33.4 45.86,66.59 1.63,1.62 3.08,3.54 4.3,5.83 8.9,16.66 24.18,36.3 31.09,54.2 1.76,4.78 5,14.15 5,14.15 0,0 8.69,13.03 -3.44,17.2 -12.13,4.18 -43.45,-6.16 -54.91,0.14 -11.45,6.3 -48.47,14.92 -55.81,5.62 -5.16,-6.54 -17.36,-33.41 -23.25,-56.46 -9,-18.95 -18.21,-38.31 -24.13,-51.92 -3.88,-8.92 -12.67,-14.71 -22.4,-14.73 -19.32,-0.04 -35.43,-0.21 -35.43,-0.21 0,0 -15.41,-47.91 -7.53,-52.93z"/>
   <path class="fil41" d="M300.95 292.7c0,0 1.09,7.39 1.84,9.78 0.75,2.39 -0.13,4.14 -3.77,4.64 -3.64,0.5 -4.39,1.23 -4.14,3.88 0,0 -0.38,1.21 -2.64,1.9 0,0 0.5,2.01 -1.25,2.45 -1.76,0.44 -4.46,3.2 -4.9,4.39 -0.44,1.19 -2.56,4.61 -5.99,4.53 -3.43,-0.08 -12.72,-5.41 -12.72,-5.41l-0.44 -7.97 9.73 -11.49 13.47 -6.7 10.8 0z"/>
   <path class="fil44" d="M367.45 424.87c-14.11,-42.39 -38.82,-59.86 -38.82,-59.86 0,0 -6.34,-5.52 -9.95,-11.7 -3.61,-6.18 -10.54,-6.67 -10.54,-6.67 0,0 -0.31,-6.68 -4.09,-8.17 -3.78,-1.49 -7.09,-1.88 -7.09,-1.88 0,0 -2.98,-3.98 -6.62,-4.61 0,0 -17.71,-13.87 -20.35,-14.35l-0.01 -2.66c0,0 56.54,-38.85 53.52,-43.12 -3.02,-4.27 -29.15,-55.01 -62.87,-51.04 -33.72,3.97 -50.1,37.25 -50.65,63.67 -0.55,26.42 -1,59.34 -5.91,77.56 -2.5,9.28 -4.16,14.51 -5.19,17.41 -0.48,1.23 -0.94,2.37 -1.39,3.43 -5.22,12.29 16.94,61.71 39.54,62.45 22.6,0.74 43.41,28.54 57.77,29.55 14.37,1.01 21.4,-12.44 20.83,-31.03 -0.57,-18.58 51.83,-18.96 51.83,-18.96z"/>
   <path class="fil45" d="M279.12 323.5l0 0c-4.09,-2.98 -8,-5.66 -9.14,-5.87l-0.01 -2.66c0,0 56.54,-38.85 53.52,-43.12 -1.21,-1.71 -6.14,-10.9 -13.79,-21.04 0,0 7.48,25.04 -6.03,33.46 -13.51,8.42 -17.62,17.86 -24.35,13.82 0,0 -3.3,4.28 -9.25,0.97 -5.95,-3.32 -21.75,-3.99 -16.39,5.67 5.35,9.66 13.9,19.99 25.44,18.78z"/>
   <path class="fil45" d="M323.33 446.57c4.93,-17.92 44.12,-21.7 44.12,-21.7 -14.11,-42.39 -38.82,-59.86 -38.82,-59.86 0,0 -6.34,-5.52 -9.95,-11.7 -3.61,-6.18 -10.54,-6.67 -10.54,-6.67 -4,7.98 -1.09,34.39 14.73,32.9 15.82,-1.49 27.12,16.74 18.08,17.31 -9.04,0.57 -31.63,15.82 -37.9,41.8 -5.32,22.09 -44.02,12.26 -55.51,8.82 18.47,6.68 35.14,26.54 47.25,27.39 14.37,1.01 23.14,-8.65 28.54,-28.29z"/>
   <polygon class="fil46" points="244.32,446.45 244.32,446.45 "/>
   <path class="fil45" d="M265.2 333.46c-1.44,-0.37 -20.88,-5.69 -20.88,-5.69 0,0 17.81,4.23 23.5,4.1 5.68,-0.13 24.88,6.93 28.42,7.35 3.07,0.36 1.4,-1.97 0.9,-2.6 0.65,0.09 2.86,0.44 5.52,1.34 0.81,1.24 1.18,2.9 0.92,3.79 -0.43,1.5 -3.11,0.56 -3.11,0.56 0,0 -19.56,-4.15 -22.65,-5.65 -3.09,-1.5 -11.18,-2.83 -12.62,-3.2z"/>
   <line class="fil47" x1="276.18" y1="321.39" x2="276.18" y2= "321.39" />
   <path class="fil45" d="M228.35 311c0.82,0.02 7.43,1.95 14.74,5.27 7.31,3.32 12.97,-0.35 12.97,-0.35 3.16,6.18 26.34,14.92 27.93,13.34 0.99,-0.98 -2.26,-3.78 -4.87,-5.76 4.8,3.5 9.85,7.43 10.98,8.3l0.06 0.18c0,0 -7.85,-1.02 -8,-1.05 -0.15,-0.03 -9.35,-1.27 -11.46,-1.62 -2.12,-0.35 -15.2,-4.02 -16.81,-4.71 -1.61,-0.69 -7.2,-3.22 -8.42,-3.92 -1.22,-0.7 -10.61,-4.91 -11.84,-5.64 -1.22,-0.73 -3.9,-2.44 -3.9,-2.44 0,0 -2.2,-1.64 -1.38,-1.61z"/>
   <path class="fil48" d="M290.31 332.13l0.03 -0.29c-0.08,-0.01 -8.27,-0.86 -21.79,-3.18 -13.5,-2.32 -40.14,-17.62 -40.4,-17.77l-0.15 0.25c0.27,0.15 26.96,15.48 40.5,17.81 13.52,2.32 21.72,3.17 21.8,3.18z"/>
   <path class="fil48" d="M302.55 342.41c0.62,-0.1 0.96,-0.31 1.03,-0.66 0.32,-1.53 -5.86,-4.91 -6.57,-5.28l-0.14 0.26c2.59,1.4 6.62,3.98 6.42,4.97 -0.06,0.31 -0.61,0.42 -1.05,0.45 -2.29,0.2 -10.16,-2.25 -17.78,-4.62 -7.44,-2.32 -15.13,-4.71 -18.44,-4.93 -6.64,-0.44 -38.22,-9.25 -38.54,-9.34l-0.08 0.28c0.32,0.09 31.93,8.91 38.6,9.35 3.27,0.22 10.94,2.61 18.37,4.92 7.99,2.49 15.54,4.84 17.89,4.64 0.1,-0.01 0.19,-0.02 0.28,-0.03z"/>
   <path class="fil48" d="M269.9 317.75l0.17 -0.24c-0.37,-0.25 -36.66,-25.65 -41.87,-43.53l-0.28 0.08c5.24,17.98 41.62,43.43 41.99,43.69z"/>
   <path class="fil48" d="M258.53 308.89l0.28 -0.07c-1.69,-7.18 -2.81,-59.59 -2.82,-60.12l-0.29 0.01c0.01,0.53 1.13,52.97 2.82,60.18z"/>
   <path class="fil48" d="M258.39 308.92l0.29 -0.06c-0.08,-0.45 -8.53,-45.24 -8.02,-52.47l-0.29 -0.02c-0.51,7.26 7.94,52.09 8.02,52.54z"/>
   <path class="fil49" d="M247.71 224l0 -0c-0,0 -0,0 -0,0zm0.08 -0.03l0 0 -0 0zm0.53 -0.2c0,0 0,-0 0.01,-0 -0,0 -0,0 -0.01,0zm0.07 -0.03c0,-0 0.01,-0 0.01,-0 -0,0 -0.01,0 -0.01,0zm0.08 -0.03c0,-0 0.01,-0 0.01,-0.01 -0,0 -0.01,0 -0.01,0.01zm0.08 -0.03c0.01,-0 0.01,-0 0.01,-0 -0.01,0 -0.01,0 -0.01,0zm0.08 -0.03c0,0 0.01,-0 0.01,-0 -0,0 -0,0 -0.01,0zm0.38 -0.14c0,0 0,0 0,-0l-0 0zm0.07 -0.02c0,-0 0.01,-0 0.02,-0.01 -0.01,0 -0.01,0 -0.02,0.01zm0.08 -0.03c0.01,-0 0.01,-0 0.02,-0.01 -0,0 -0.01,0 -0.02,0.01zm0.08 -0.03c0.01,-0 0.01,-0 0.02,-0.01 -0.01,0 -0.01,0 -0.02,0.01zm0.08 -0.03c0,-0 0.01,-0 0.01,-0 -0,0 -0.01,0 -0.01,0zm0.08 -0.03c0.01,-0 0.01,-0 0.01,-0 -0.01,0 -0.01,0 -0.01,0zm0.31 -0.11c0,0 0.01,-0 0.01,-0 -0,0 -0.01,0 -0.01,0zm0.07 -0.02c0,-0 0.01,-0 0.02,-0.01 -0.01,0 -0.01,0 -0.02,0.01zm0.08 -0.03c0.01,-0 0.01,-0 0.02,-0.01 -0.01,0 -0.01,0 -0.02,0.01zm0.08 -0.03c0.01,-0 0.01,-0 0.02,-0.01 -0.01,0 -0.01,0 -0.02,0.01zm0.08 -0.03c0.01,-0 0.01,-0 0.02,-0.01 -0.01,0 -0.02,0.01 -0.02,0.01zm0.08 -0.03c0.01,-0 0.02,-0.01 0.02,-0.01 -0.01,0 -0.02,0.01 -0.02,0.01zm0.08 -0.03c0.01,-0 0.01,-0 0.02,-0.01 -0.01,0 -0.01,0 -0.02,0.01zm0.23 -0.08c0,0 0,-0 0.01,-0 -0,0 -0,0 -0.01,0zm0.06 -0.02c0.01,-0 0.02,-0.01 0.03,-0.01 -0.01,0 -0.02,0.01 -0.03,0.01zm0.08 -0.03c0.01,-0 0.02,-0.01 0.03,-0.01 -0.01,0 -0.02,0.01 -0.03,0.01zm0.08 -0.03c0.01,-0 0.02,-0.01 0.03,-0.01 -0.01,0 -0.02,0.01 -0.03,0.01zm0.08 -0.03c0.01,-0 0.02,-0.01 0.03,-0.01 -0.01,0 -0.02,0.01 -0.03,0.01zm0.08 -0.03c0.01,-0 0.02,-0.01 0.03,-0.01 -0.01,0 -0.02,0.01 -0.03,0.01zm0.08 -0.03c0.01,-0 0.02,-0.01 0.03,-0.01 -0.01,0 -0.02,0.01 -0.03,0.01zm0.08 -0.03c0.01,-0 0.02,-0.01 0.02,-0.01 -0.01,0 -0.01,0 -0.02,0.01zm0.22 -0.07c0.01,-0 0.02,-0.01 0.03,-0.01 -0.01,0 -0.02,0 -0.03,0.01zm0.08 -0.02c0.01,-0 0.02,-0.01 0.03,-0.01 -0.01,0 -0.02,0.01 -0.03,0.01zm0.08 -0.02c0.01,-0 0.02,-0.01 0.04,-0.01 -0.01,0 -0.03,0.01 -0.04,0.01zm0.08 -0.02c0.01,-0 0.02,-0.01 0.04,-0.01 -0.01,0 -0.02,0.01 -0.04,0.01zm0.08 -0.03c0.01,-0 0.02,-0.01 0.04,-0.01 -0.01,0 -0.03,0.01 -0.04,0.01zm0.08 -0.02c0.01,-0 0.03,-0.01 0.04,-0.01 -0.01,0 -0.03,0.01 -0.04,0.01zm0.09 -0.03c0.01,-0 0.02,-0.01 0.03,-0.01 -0.01,0 -0.02,0.01 -0.03,0.01zm0.08 -0.02c0.01,-0 0.01,-0 0.02,-0.01 -0.01,0 -0.01,0 -0.02,0.01zm0.13 -0.04c0.01,-0 0.03,-0.01 0.04,-0.01 -0.01,0 -0.03,0.01 -0.04,0.01zm0.08 -0.02c0.01,-0 0.03,-0.01 0.04,-0.01 -0.01,0 -0.03,0.01 -0.04,0.01zm0.09 -0.02c0.01,-0 0.03,-0.01 0.04,-0.01 -0.01,0 -0.02,0.01 -0.04,0.01zm0.09 -0.02c0.01,-0 0.03,-0.01 0.04,-0.01 -0.01,0 -0.03,0.01 -0.04,0.01zm0.08 -0.02c0.01,-0 0.03,-0.01 0.04,-0.01 -0.01,0 -0.03,0.01 -0.04,0.01zm0.09 -0.02c0.01,-0 0.03,-0.01 0.04,-0.01 -0.01,0 -0.03,0.01 -0.04,0.01zm0.09 -0.02c0.01,-0 0.03,-0.01 0.04,-0.01 -0.01,0 -0.03,0.01 -0.04,0.01zm0.09 -0.02c0.01,-0 0.02,-0.01 0.03,-0.01 -0.01,0 -0.02,0.01 -0.03,0.01zm0.12 -0.03c0.02,-0.01 0.03,-0.01 0.05,-0.01 -0.02,0 -0.03,0.01 -0.05,0.01zm0.09 -0.03c0.01,-0 0.03,-0.01 0.04,-0.01 -0.01,0 -0.03,0.01 -0.04,0.01zm0.09 -0.02c0.01,-0 0.03,-0.01 0.04,-0.01 -0.01,0 -0.03,0.01 -0.04,0.01zm0.08 -0.02c0.01,-0 0.03,-0.01 0.04,-0.01 -0.01,0 -0.03,0.01 -0.04,0.01zm0.09 -0.02c0.01,-0 0.03,-0.01 0.04,-0.01 -0.01,0 -0.03,0.01 -0.04,0.01zm0.08 -0.02c0.02,-0 0.03,-0.01 0.05,-0.01 -0.02,0 -0.03,0.01 -0.05,0.01zm0.09 -0.02c0.01,-0 0.03,-0.01 0.04,-0.01 -0.01,0 -0.03,0.01 -0.04,0.01zm0.08 -0.02c0.02,-0 0.03,-0.01 0.05,-0.01 -0.01,0 -0.03,0.01 -0.05,0.01zm0.09 -0.02c0.03,-0.01 0.06,-0.02 0.09,-0.02 -0.03,0.01 -0.06,0.01 -0.09,0.02zm0.11 -0.03c0.02,-0.01 0.04,-0.01 0.06,-0.02 -0.02,0.01 -0.04,0.01 -0.06,0.02zm0.1 -0.03c0.02,-0 0.03,-0.01 0.05,-0.01 -0.02,0 -0.03,0.01 -0.05,0.01zm0.09 -0.02c0.01,-0 0.03,-0.01 0.05,-0.01 -0.01,0 -0.03,0.01 -0.05,0.01zm0.09 -0.02c0.02,-0 0.03,-0.01 0.05,-0.01 -0.01,0 -0.03,0.01 -0.05,0.01zm0.09 -0.02c0.01,-0 0.03,-0.01 0.05,-0.01 -0.02,0 -0.03,0.01 -0.05,0.01zm0.09 -0.02c0.02,-0 0.03,-0.01 0.05,-0.01 -0.02,0 -0.04,0.01 -0.05,0.01zm0.09 -0.02c0.02,-0 0.04,-0.01 0.06,-0.01 -0.02,0 -0.04,0.01 -0.06,0.01zm0.09 -0.02c0.02,-0.01 0.05,-0.01 0.07,-0.02 -0.02,0.01 -0.05,0.01 -0.07,0.02zm0.09 -0.02c0.03,-0.01 0.06,-0.01 0.09,-0.02 -0.03,0.01 -0.06,0.01 -0.09,0.02zm0.11 -0.03c0.02,-0 0.04,-0.01 0.06,-0.01 -0.02,0 -0.04,0.01 -0.06,0.01zm0.09 -0.02c0.02,-0 0.04,-0.01 0.06,-0.01 -0.02,0.01 -0.04,0.01 -0.06,0.01zm0.09 -0.02c0.02,-0.01 0.03,-0.01 0.05,-0.01 -0.02,0 -0.03,0.01 -0.05,0.01zm0.09 -0.02c0.02,-0 0.03,-0.01 0.05,-0.01 -0.02,0.01 -0.03,0.01 -0.05,0.01zm0.09 -0.02c0.02,-0.01 0.03,-0.01 0.05,-0.01 -0.02,0 -0.03,0.01 -0.05,0.01zm0.09 -0.02c0.02,-0 0.03,-0.01 0.05,-0.01 -0.02,0 -0.03,0.01 -0.05,0.01zm0.09 -0.02c0.02,-0.01 0.04,-0.01 0.06,-0.01 -0.02,0 -0.04,0.01 -0.06,0.01zm0.09 -0.02c0.03,-0.01 0.06,-0.01 0.09,-0.02 -0.03,0.01 -0.06,0.01 -0.09,0.02zm0.12 -0.03c0.02,-0 0.03,-0.01 0.05,-0.01 -0.02,0 -0.03,0.01 -0.05,0.01zm0.09 -0.02c0.02,-0 0.03,-0.01 0.05,-0.01 -0.02,0 -0.03,0.01 -0.05,0.01zm0.09 -0.02c0.01,-0 0.03,-0.01 0.05,-0.01 -0.02,0 -0.03,0.01 -0.05,0.01zm0.09 -0.02c0.02,-0 0.03,-0.01 0.05,-0.01 -0.02,0 -0.03,0.01 -0.05,0.01zm0.09 -0.02c0.01,-0 0.03,-0.01 0.05,-0.01 -0.02,0 -0.03,0.01 -0.05,0.01zm0.09 -0.02c0.02,-0 0.03,-0.01 0.05,-0.01 -0.02,0 -0.03,0.01 -0.05,0.01zm0.09 -0.02c0.02,-0 0.03,-0.01 0.05,-0.01 -0.02,0 -0.03,0.01 -0.05,0.01zm0.09 -0.02c0.02,-0.01 0.04,-0.01 0.06,-0.01 -0.02,0 -0.04,0.01 -0.06,0.01zm0.1 -0.02c0.02,-0 0.05,-0.01 0.07,-0.01 -0.02,0 -0.05,0.01 -0.07,0.01zm0.11 -0.02c0.02,-0 0.03,-0.01 0.06,-0.01 -0.02,0 -0.04,0.01 -0.06,0.01zm0.09 -0.02c0.02,-0 0.04,-0.01 0.06,-0.01 -0.02,0 -0.04,0.01 -0.06,0.01zm0.09 -0.02c0.02,-0 0.04,-0.01 0.05,-0.01 -0.02,0 -0.04,0.01 -0.05,0.01zm0.09 -0.02c0.02,-0 0.03,-0.01 0.05,-0.01 -0.02,0 -0.03,0.01 -0.05,0.01zm0.09 -0.02c0.02,-0 0.03,-0.01 0.05,-0.01 -0.02,0 -0.03,0.01 -0.05,0.01zm0.09 -0.02c0.02,-0 0.04,-0.01 0.05,-0.01 -0.02,0 -0.04,0.01 -0.05,0.01zm0.09 -0.02c0.02,-0 0.04,-0.01 0.06,-0.01 -0.02,0 -0.04,0.01 -0.06,0.01zm0.09 -0.02c0.03,-0.01 0.06,-0.01 0.09,-0.02 -0.03,0.01 -0.06,0.01 -0.09,0.02zm0.11 -0.02c0.02,-0 0.04,-0.01 0.06,-0.01 -0.02,0 -0.04,0.01 -0.06,0.01zm0.1 -0.02c0.02,-0 0.04,-0.01 0.06,-0.01 -0.02,0 -0.04,0.01 -0.06,0.01zm0.09 -0.02c0.02,-0 0.03,-0.01 0.05,-0.01 -0.02,0 -0.03,0.01 -0.05,0.01zm0.09 -0.02c0.02,-0 0.03,-0.01 0.05,-0.01 -0.02,0 -0.03,0.01 -0.05,0.01zm0.09 -0.02c0.02,-0 0.03,-0.01 0.05,-0.01 -0.02,0 -0.03,0.01 -0.05,0.01zm0.09 -0.02c0.02,-0 0.04,-0.01 0.05,-0.01 -0.02,0 -0.04,0.01 -0.05,0.01zm0.09 -0.02c0.02,-0 0.04,-0.01 0.06,-0.01 -0.02,0 -0.04,0.01 -0.06,0.01zm0.09 -0.02c0.03,-0.01 0.06,-0.01 0.09,-0.02 -0.03,0.01 -0.06,0.01 -0.09,0.02zm0.09 -0.02c0.03,-0.01 0.06,-0.01 0.09,-0.02 -0.03,0.01 -0.06,0.01 -0.09,0.02zm0.12 -0.02c0.02,-0 0.04,-0.01 0.07,-0.01 -0.02,0 -0.04,0.01 -0.07,0.01zm0.1 -0.02c0.02,-0 0.04,-0.01 0.06,-0.01 -0.02,0 -0.04,0.01 -0.06,0.01zm0.1 -0.02c0.02,-0 0.03,-0.01 0.05,-0.01 -0.02,0 -0.03,0.01 -0.05,0.01zm0.09 -0.02c0.02,-0 0.03,-0.01 0.05,-0.01 -0.02,0 -0.03,0.01 -0.05,0.01zm0.09 -0.02c0.02,-0 0.03,-0.01 0.05,-0.01 -0.01,0 -0.03,0.01 -0.05,0.01zm0.09 -0.02c0.02,-0 0.03,-0.01 0.06,-0.01 -0.02,0 -0.04,0.01 -0.06,0.01zm0.09 -0.01c0.02,-0 0.04,-0.01 0.06,-0.01 -0.02,0 -0.04,0.01 -0.06,0.01zm0.09 -0.02c0.03,-0 0.06,-0.01 0.09,-0.01 -0.03,0 -0.06,0.01 -0.09,0.01zm0.12 -0.02c0.02,-0 0.04,-0.01 0.06,-0.01 -0.02,0 -0.04,0.01 -0.06,0.01zm0.1 -0.02c0.02,-0 0.04,-0.01 0.06,-0.01 -0.02,0 -0.04,0.01 -0.06,0.01zm0.1 -0.02c0.02,-0 0.03,-0.01 0.06,-0.01 -0.02,0 -0.04,0 -0.06,0.01zm0.09 -0.01c0.02,-0 0.03,-0.01 0.05,-0.01 -0.02,0 -0.03,0 -0.05,0.01zm0.09 -0.01c0.02,-0 0.04,-0.01 0.06,-0.01 -0.02,0 -0.04,0.01 -0.06,0.01zm0.09 -0.01c0.02,-0 0.04,-0.01 0.06,-0.01 -0.02,0 -0.04,0.01 -0.06,0.01zm0.09 -0.01c0.02,-0 0.04,-0.01 0.06,-0.01 -0.02,0 -0.04,0.01 -0.06,0.01zm0.09 -0.01c0.06,-0.01 0.13,-0.02 0.19,-0.03 -0.06,0.01 -0.12,0.02 -0.19,0.03zm0.21 -0.03c0.02,-0 0.05,-0.01 0.07,-0.01 -0.02,0 -0.04,0.01 -0.07,0.01zm0.1 -0.01c0.02,-0 0.04,-0.01 0.06,-0.01 -0.02,0 -0.03,0 -0.06,0.01zm0.09 -0.01c0.02,-0 0.04,-0.01 0.05,-0.01 -0.02,0 -0.03,0.01 -0.05,0.01zm0.09 -0.01c0.02,-0 0.03,-0 0.06,-0.01 -0.02,0 -0.04,0.01 -0.06,0.01zm0.09 -0.01c0.02,-0 0.04,-0 0.06,-0.01 -0.02,0 -0.04,0.01 -0.06,0.01zm0.1 -0.01c0.02,-0 0.04,-0.01 0.06,-0.01 -0.02,0 -0.04,0.01 -0.06,0.01zm0.09 -0.01c0.02,-0 0.04,-0.01 0.07,-0.01 -0.02,0 -0.04,0.01 -0.07,0.01zm0.09 -0.01c0.03,-0 0.06,-0.01 0.09,-0.01 -0.03,0 -0.06,0.01 -0.09,0.01zm0.11 -0.01c0.02,-0 0.05,-0.01 0.07,-0.01 -0.02,0 -0.05,0.01 -0.07,0.01zm0.11 -0.01c0.02,-0 0.04,-0 0.06,-0.01 -0.02,0 -0.04,0 -0.06,0.01zm0.1 -0.01c0.02,-0 0.04,-0.01 0.06,-0.01 -0.02,0 -0.04,0 -0.06,0.01zm0.09 -0.01c0.02,-0 0.04,-0 0.06,-0.01 -0.02,0 -0.04,0.01 -0.06,0.01zm0.1 -0.01c0.02,-0 0.04,-0 0.06,-0.01 -0.02,0 -0.04,0 -0.06,0.01zm0.1 -0.01c0.02,-0 0.04,-0 0.06,-0.01 -0.02,0 -0.04,0 -0.06,0.01zm0.09 -0.01c0.02,-0 0.04,-0 0.06,-0.01 -0.02,0 -0.04,0.01 -0.06,0.01zm0.1 -0.01c0.03,-0 0.06,-0.01 0.09,-0.01 -0.03,0 -0.06,0.01 -0.09,0.01z"/>
   <path class="fil50" d="M210.68 275.94c2.96,-20.8 15.08,-43.35 37.04,-51.93 0,-0 0,-0 0,-0 0.03,-0.01 0.05,-0.02 0.07,-0.03l0 0c0.18,-0.07 0.35,-0.14 0.53,-0.2 0,0 0,-0 0.01,-0 0.02,-0.01 0.05,-0.02 0.07,-0.03 0,-0 0.01,-0 0.01,-0 0.02,-0.01 0.05,-0.02 0.07,-0.02 0,-0 0.01,-0 0.01,-0.01 0.02,-0.01 0.04,-0.02 0.07,-0.02 0.01,-0 0.01,-0 0.01,-0 0.02,-0.01 0.05,-0.02 0.07,-0.02 0,-0 0,0 0.01,-0 0.13,-0.05 0.25,-0.09 0.38,-0.14l0 -0c0.02,-0.01 0.04,-0.01 0.07,-0.02 0.01,-0 0.01,-0 0.02,-0.01 0.02,-0.01 0.04,-0.01 0.06,-0.02 0.01,-0 0.01,-0.01 0.02,-0.01 0.02,-0.01 0.04,-0.02 0.06,-0.02 0.01,-0 0.01,-0 0.02,-0.01 0.02,-0.01 0.04,-0.02 0.06,-0.02 0,0 0.01,-0 0.01,-0 0.02,-0.01 0.04,-0.02 0.06,-0.02 0.01,-0 0.01,-0 0.01,-0 0.1,-0.03 0.19,-0.07 0.29,-0.1 0,-0 0.01,-0 0.01,-0 0.02,-0.01 0.04,-0.01 0.07,-0.02 0,-0 0.01,-0 0.02,-0.01 0.02,-0.01 0.04,-0.01 0.06,-0.02 0.01,-0 0.01,-0 0.02,-0.01 0.02,-0.01 0.04,-0.01 0.06,-0.02 0.01,-0 0.01,-0 0.02,-0.01 0.02,-0.01 0.04,-0.01 0.06,-0.02 0.01,-0 0.02,-0 0.02,-0.01 0.02,-0.01 0.04,-0.01 0.06,-0.02 0.01,-0 0.02,-0.01 0.02,-0.01 0.02,-0.01 0.04,-0.01 0.06,-0.02 0.01,-0 0.01,-0 0.02,-0.01 0.07,-0.02 0.14,-0.05 0.21,-0.07 0,0 0,-0 0.01,-0 0.02,-0.01 0.04,-0.01 0.06,-0.02 0.01,-0 0.02,-0.01 0.03,-0.01 0.02,-0.01 0.04,-0.01 0.06,-0.02 0.01,-0 0.02,-0.01 0.03,-0.01 0.02,-0.01 0.04,-0.01 0.06,-0.02 0.01,-0 0.02,-0.01 0.03,-0.01 0.02,-0 0.03,-0.01 0.05,-0.02 0.01,-0 0.02,-0.01 0.03,-0.01 0.02,-0.01 0.03,-0.01 0.05,-0.02 0.01,-0 0.02,-0.01 0.03,-0.01 0.02,-0 0.03,-0.01 0.05,-0.01 0.01,-0 0.02,-0.01 0.03,-0.01 0.02,-0.01 0.03,-0.01 0.05,-0.02 0.01,-0 0.01,-0.01 0.02,-0.01 0.07,-0.02 0.13,-0.04 0.2,-0.06 0.01,-0 0.02,-0.01 0.03,-0.01 0.02,-0.01 0.03,-0.01 0.05,-0.02 0.01,-0 0.02,-0.01 0.03,-0.01 0.02,-0 0.03,-0.01 0.05,-0.01 0.01,-0 0.02,-0.01 0.04,-0.01 0.01,-0 0.03,-0.01 0.05,-0.01 0.01,-0 0.03,-0.01 0.04,-0.01 0.02,-0 0.03,-0.01 0.05,-0.01 0.01,-0 0.03,-0.01 0.04,-0.01 0.01,-0 0.03,-0.01 0.05,-0.01 0.01,-0 0.03,-0.01 0.04,-0.01 0.01,-0 0.03,-0.01 0.05,-0.01 0.01,-0 0.02,-0.01 0.03,-0.01 0.02,-0 0.03,-0.01 0.05,-0.01 0.01,-0 0.01,-0 0.02,-0.01 0.04,-0.01 0.07,-0.02 0.11,-0.03 0.01,-0 0.03,-0.01 0.04,-0.01 0.01,-0 0.03,-0.01 0.04,-0.01 0.01,-0 0.03,-0.01 0.04,-0.01 0.01,-0 0.03,-0.01 0.05,-0.01 0.01,-0 0.03,-0.01 0.04,-0.01 0.01,-0 0.03,-0.01 0.05,-0.01 0.01,-0 0.03,-0.01 0.04,-0.01 0.01,-0 0.03,-0.01 0.05,-0.01 0.01,-0 0.03,-0.01 0.04,-0.01 0.01,-0 0.03,-0.01 0.05,-0.01 0.01,-0 0.03,-0.01 0.04,-0.01 0.02,-0 0.03,-0.01 0.05,-0.01 0.01,-0 0.03,-0.01 0.04,-0.01 0.02,-0 0.03,-0.01 0.05,-0.01 0.01,-0 0.02,-0.01 0.03,-0.01 0.03,-0.01 0.06,-0.01 0.08,-0.02 0.02,-0.01 0.03,-0.01 0.05,-0.01 0.01,-0.01 0.02,-0.01 0.04,-0.01 0.01,-0 0.03,-0.01 0.04,-0.01 0.02,-0 0.03,-0.01 0.05,-0.01 0.01,-0 0.03,-0.01 0.04,-0.01 0.01,-0 0.03,-0.01 0.04,-0.01 0.01,-0 0.03,-0.01 0.04,-0.01 0.01,-0 0.03,-0.01 0.04,-0.01 0.01,-0 0.03,-0.01 0.04,-0.01 0.01,-0 0.03,-0.01 0.04,-0.01 0.01,-0 0.03,-0.01 0.05,-0.01 0.01,-0 0.03,-0.01 0.04,-0.01 0.01,-0 0.03,-0.01 0.04,-0.01 0.01,-0 0.03,-0.01 0.04,-0.01 0.02,-0 0.03,-0.01 0.05,-0.01 0.01,-0 0.03,-0.01 0.04,-0.01 0.03,-0.01 0.06,-0.02 0.09,-0.02 0.01,-0 0.02,-0 0.02,-0.01 0.02,-0.01 0.04,-0.01 0.06,-0.02 0.01,-0 0.02,-0.01 0.04,-0.01 0.02,-0 0.03,-0.01 0.05,-0.01 0.01,-0 0.02,-0.01 0.04,-0.01 0.01,-0 0.03,-0.01 0.05,-0.01 0.01,-0 0.03,-0.01 0.04,-0.01 0.02,-0 0.03,-0.01 0.05,-0.01 0.01,-0 0.03,-0.01 0.04,-0.01 0.02,-0 0.03,-0.01 0.05,-0.01 0.01,-0 0.02,-0.01 0.04,-0.01 0.01,-0 0.03,-0.01 0.05,-0.01 0.01,-0 0.02,-0.01 0.03,-0.01 0.02,-0 0.04,-0.01 0.06,-0.01 0.01,-0 0.02,-0 0.03,-0.01 0.02,-0.01 0.05,-0.01 0.07,-0.02 0,-0 0.01,-0 0.01,-0 0.03,-0.01 0.06,-0.01 0.09,-0.02 0.01,-0 0.02,-0 0.03,-0.01 0.02,-0 0.04,-0.01 0.06,-0.01 0.01,-0 0.02,-0.01 0.03,-0.01 0.02,-0 0.03,-0.01 0.06,-0.01 0.01,-0 0.02,-0.01 0.04,-0.01 0.02,-0.01 0.03,-0.01 0.05,-0.01 0.01,-0 0.03,-0.01 0.04,-0.01 0.02,-0 0.03,-0.01 0.05,-0.01 0.01,-0 0.03,-0.01 0.04,-0.01 0.02,-0.01 0.03,-0.01 0.05,-0.01 0.01,-0 0.03,-0.01 0.04,-0.01 0.02,-0 0.03,-0.01 0.05,-0.01 0.01,-0 0.03,-0.01 0.04,-0.01 0.02,-0 0.04,-0.01 0.06,-0.01 0.01,-0 0.02,-0.01 0.03,-0.01 0.03,-0.01 0.06,-0.01 0.09,-0.02 0.01,-0 0.02,-0 0.04,-0.01 0.02,-0 0.03,-0.01 0.05,-0.01 0.01,-0 0.03,-0.01 0.04,-0.01 0.01,-0 0.03,-0.01 0.05,-0.01 0.01,-0 0.03,-0.01 0.04,-0.01 0.01,-0 0.03,-0.01 0.05,-0.01 0.01,-0 0.03,-0.01 0.04,-0.01 0.02,-0 0.03,-0.01 0.05,-0.01 0.01,-0 0.03,-0.01 0.04,-0.01 0.02,-0 0.03,-0.01 0.05,-0.01 0.01,-0 0.03,-0.01 0.04,-0.01 0.02,-0 0.03,-0.01 0.05,-0.01 0.01,-0 0.03,-0.01 0.04,-0.01 0.02,-0 0.03,-0.01 0.05,-0.01 0.01,-0 0.02,-0.01 0.04,-0.01 0.02,-0.01 0.04,-0.01 0.06,-0.01 0.01,-0 0.03,-0.01 0.04,-0.01 0.02,-0 0.05,-0.01 0.07,-0.01 0.01,-0 0.03,-0.01 0.04,-0.01 0.02,-0 0.04,-0.01 0.06,-0.01 0.01,-0 0.02,-0 0.03,-0.01 0.02,-0 0.04,-0.01 0.06,-0.01 0.01,-0 0.02,-0 0.03,-0.01 0.02,-0 0.04,-0.01 0.05,-0.01 0.01,-0 0.03,-0 0.04,-0.01 0.02,-0 0.03,-0.01 0.05,-0.01 0.01,-0 0.03,-0.01 0.04,-0.01 0.02,-0 0.03,-0.01 0.05,-0.01 0.01,-0 0.02,-0.01 0.04,-0.01 0.02,-0 0.04,-0.01 0.05,-0.01 0.01,-0 0.02,-0 0.03,-0.01 0.02,-0 0.04,-0.01 0.06,-0.01 0.01,-0 0.02,-0 0.03,-0.01 0.03,-0.01 0.06,-0.01 0.09,-0.02 0.01,-0 0.02,-0 0.03,-0.01 0.02,-0 0.04,-0.01 0.06,-0.01 0.01,-0 0.02,-0 0.04,-0.01 0.02,-0 0.04,-0.01 0.06,-0.01 0.01,-0 0.03,-0 0.04,-0.01 0.02,-0 0.03,-0.01 0.05,-0.01 0.01,-0 0.03,-0.01 0.04,-0.01 0.02,-0 0.03,-0.01 0.05,-0.01 0.01,-0 0.02,-0 0.04,-0.01 0.02,-0 0.03,-0.01 0.05,-0.01 0.01,-0 0.03,-0.01 0.04,-0.01 0.02,-0 0.04,-0.01 0.05,-0.01 0.01,-0 0.02,-0 0.04,-0.01 0.02,-0 0.04,-0.01 0.06,-0.01 0.01,-0 0.02,-0 0.03,-0.01 0.03,-0.01 0.06,-0.01 0.09,-0.02 0,0 0,0 0,0 0.03,-0.01 0.06,-0.01 0.09,-0.02 0.01,-0 0.02,-0 0.03,-0 0.02,-0 0.04,-0.01 0.07,-0.01 0.01,-0 0.02,-0 0.03,-0.01 0.02,-0 0.04,-0.01 0.06,-0.01 0.01,-0 0.03,-0 0.04,-0.01 0.02,-0 0.03,-0.01 0.05,-0.01 0.01,-0 0.03,-0 0.04,-0.01 0.02,-0 0.03,-0.01 0.05,-0.01 0.01,-0 0.03,-0 0.04,-0.01 0.02,-0 0.03,-0.01 0.05,-0.01 0.01,-0 0.03,-0 0.04,-0.01 0.02,-0 0.04,-0.01 0.06,-0.01 0.01,-0 0.02,-0 0.04,-0.01 0.02,-0 0.04,-0.01 0.06,-0.01 0.01,-0 0.02,-0 0.03,-0 0.03,-0 0.06,-0.01 0.09,-0.01 0.01,-0 0.02,-0 0.03,-0 0.02,-0 0.04,-0.01 0.06,-0.01 0.01,0 0.02,-0 0.03,-0 0.02,-0 0.04,-0.01 0.06,-0.01 0.01,-0 0.02,-0 0.04,-0.01 0.02,-0 0.04,-0.01 0.06,-0.01 0.01,-0 0.03,-0.01 0.04,-0.01 0.02,-0 0.03,-0.01 0.05,-0.01 0.01,-0 0.02,-0 0.04,-0.01 0.02,-0 0.04,-0.01 0.06,-0.01 0.01,-0 0.02,-0 0.04,-0.01 0.02,-0 0.04,-0.01 0.06,-0.01 0.01,-0 0.02,-0 0.04,-0 0.02,-0 0.04,-0.01 0.06,-0.01 0.01,-0 0.02,-0 0.03,-0 0.06,-0.01 0.13,-0.02 0.19,-0.03 0.01,-0 0.02,-0 0.03,-0 0.02,-0 0.04,-0.01 0.07,-0.01 0.01,-0 0.02,-0 0.04,-0.01 0.02,-0 0.03,-0 0.06,-0.01 0.01,-0 0.03,-0 0.04,-0.01 0.02,-0 0.03,-0.01 0.05,-0.01 0.01,-0 0.03,-0 0.04,-0.01 0.02,-0 0.03,-0 0.06,-0.01 0.01,-0 0.02,-0 0.03,-0.01 0.02,-0 0.04,-0 0.06,-0.01 0.01,-0 0.03,-0 0.04,-0 0.02,-0 0.04,-0.01 0.06,-0.01 0.01,-0 0.02,-0 0.03,-0 0.02,-0 0.05,-0.01 0.07,-0.01 0.01,0 0.02,-0 0.03,-0 0.03,-0 0.06,-0.01 0.09,-0.01 0,-0 0.01,-0 0.02,-0 0.02,-0 0.05,-0.01 0.07,-0.01 0.01,-0 0.02,-0 0.04,-0 0.02,-0 0.04,-0 0.06,-0.01 0.01,-0 0.03,-0 0.04,-0 0.02,-0 0.04,-0.01 0.06,-0.01 0.01,-0 0.03,-0 0.04,-0.01 0.02,-0 0.04,-0 0.06,-0.01 0.01,0 0.02,-0 0.04,-0 0.02,-0 0.04,-0 0.06,-0.01 0.01,-0 0.03,-0 0.04,-0 0.02,-0 0.04,-0 0.06,-0.01 0.01,-0 0.02,-0 0.03,-0 0.02,-0 0.04,-0 0.06,-0.01 0.01,-0 0.02,-0 0.03,-0 0.03,-0 0.06,-0.01 0.09,-0.01l0 0c1.26,-0.15 2.51,-0.22 3.75,-0.22 1.92,0 3.82,0.17 5.68,0.49 -0.06,-0 -0.33,-0.01 -0.77,-0.01 -4.41,0 -25.97,0.73 -28.91,12.86 -1.5,6.17 -3.96,7.71 -6.03,7.71 -2.05,0 -3.72,-1.49 -3.72,-1.49 -9.54,6.03 -19.94,35.79 -19.94,35.79z"/>
   <path class="fil48" d="M270.11 315.05c2.3,-5.4 4.36,-10.91 6.29,-16.46 0.98,-2.77 1.88,-5.57 2.76,-8.37 0.89,-2.8 1.72,-5.62 2.53,-8.45 1.58,-5.66 2.99,-11.38 4.09,-17.15 0.55,-2.89 1.03,-5.79 1.42,-8.71 0.36,-2.92 0.66,-5.85 0.78,-8.79l-0.21 -0.01c-0.28,2.92 -0.64,5.83 -1.11,8.72 -0.45,2.89 -0.99,5.77 -1.6,8.64 -1.22,5.73 -2.63,11.42 -4.2,17.07 -1.55,5.66 -3.27,11.26 -5.07,16.84 -0.89,2.79 -1.82,5.58 -2.78,8.35 -0.94,2.78 -1.92,5.55 -2.92,8.31l0.02 0.01z"/>
   <polygon class="fil39" points="278.88,675.8 287,675.8 264.28,538.26 256.17,538.26 "/>
   <polygon class="fil40" points="280.99,675.8 289.1,675.8 266.38,538.26 258.27,538.26 "/>
   <polygon class="fil39" points="351.25,675.8 359.36,675.8 336.64,538.26 328.53,538.26 "/>
   <polygon class="fil40" points="353.35,675.8 361.46,675.8 338.75,538.26 330.63,538.26 "/>
   <polygon class="fil39" points="276.19,675.8 268.08,675.8 290.8,538.26 298.91,538.26 "/>
   <polygon class="fil40" points="278.85,675.8 270.74,675.8 293.45,538.26 301.57,538.26 "/>
   <polygon class="fil39" points="203.83,675.8 195.72,675.8 218.43,538.26 226.55,538.26 "/>
   <polygon class="fil40" points="206.49,675.8 198.37,675.8 221.09,538.26 229.2,538.26 "/>
   <path class="fil51" d="M165.89 417.56c-0.16,-31.07 -2.6,-39.95 41.66,-37.69 44.26,2.25 52.59,37.69 65.09,86.64 12.5,48.95 29.68,56.26 29.68,56.26l56.75 0c4.32,0 7.82,3.78 7.82,8.45l0 2.24c0,4.67 -3.5,8.45 -7.82,8.45l-143.71 0c-0.12,0 -0.25,-0.01 -0.4,-0.02 -0.7,-0.04 -1.39,-0.17 -2.03,-0.4 -6.36,-1.65 -21.32,-8.11 -32.47,-18.71 -13.02,-12.38 -14.4,-68.96 -14.58,-105.21z"/>
   <path class="fil52" d="M365.51 536.47c0,-4.67 -3.55,-8.45 -7.93,-8.45l-57.58 0c0,0 -17.43,-7.31 -30.12,-56.26 -12.68,-48.95 -21.13,-84.39 -66.04,-86.65 -19.48,-0.97 -30.04,0.15 -35.74,4.26 3.8,-8.36 13.75,-10.81 39.45,-9.5 44.26,2.25 52.59,37.69 65.09,86.64 12.5,48.95 29.68,56.26 29.68,56.26l56.75 0c4.32,0 7.82,3.78 7.82,8.45l0 2.24c0,1.78 -0.51,3.43 -1.39,4.8l0 -1.78z"/>
   <polygon class="fil39" points="613.95,675.8 628.56,675.8 587.64,433.44 573.03,433.44 "/>
   <polygon class="fil40" points="617.73,675.8 632.35,675.8 591.43,433.44 576.82,433.44 "/>
   <polygon class="fil39" points="461.27,675.8 446.66,675.8 487.57,433.44 502.18,433.44 "/>
   <polygon class="fil40" points="466.05,675.8 451.44,675.8 492.35,433.44 506.96,433.44 "/>
   <path class="fil53" d="M574.67 390.47c0,0 -16.51,-12.23 -18.62,-14.6l1.44 -2.52 -2.77 1.21c0,0 -7,-6.98 -6.94,-8.9l3.62 -3.65 -4.02 0.61c0,0 -5.48,-8.51 -5.09,-9.7l2.63 -2.65 -2.24 0.4c0,0 -2.14,-13.21 0.36,-14.67 0,0 12.18,1.67 18.17,9.76l-1.84 3.09 2.89 -1.51c0,0 7.67,8.52 8.55,10.45l-2.1 2.12 2.72 -0.45c0,0 5.2,6.41 5.56,8.17l-2.37 2.03 3.26 0.95c0,0 2.21,8.36 -3.21,19.84z"/>
   <path class="fil54" d="M574.67 390.47c0,0 -19.47,-35.93 -24.66,-40.41 0,0 25.15,28.84 24.66,40.41z"/>
   <path class="fil55" d="M573.31 384.97c0,0 12.72,-5.03 14.48,-6.19l-0.5 -1.86 1.58 1.24c0,0 5.7,-3.28 5.98,-4.52l-1.7 -2.96 2.49 1.08c0,0 4.98,-4.52 4.93,-5.35l-1.24 -2.15 1.38 0.64c0,0 3.63,-8.11 2.27,-9.48 0,0 -8.12,-1 -13.36,3.16l0.66 2.3 -1.61 -1.46c0,0 -6.39,4.16 -7.29,5.25l0.99 1.72 -1.68 -0.76c0,0 -4.44,3.23 -4.97,4.3l1.18 1.71 -2.26 0.06c0,0 -2.86,4.99 -1.33,13.28z"/>
   <path class="fil54" d="M573.31 384.97c0,0 18.67,-19.74 22.77,-21.73 0,0 -21.11,14.23 -22.77,21.73z"/>
   <path class="fil56" d="M549.5 391.78l46.09 0c0.39,0 0.7,-0.31 0.7,-0.7l0 -8.86c0,-0.39 -0.31,-0.7 -0.7,-0.7l-46.09 0c-0.39,0 -0.7,0.32 -0.7,0.7l0 8.86c0,0.39 0.32,0.7 0.7,0.7z"/>
   <polygon class="fil56" points="585.16,416.33 591.52,391.78 553.58,391.78 560.73,416.33 "/>
   <path class="fil57" d="M563.62 414.72c3.52,0.61 21.03,1.71 21.03,1.71l-23.92 0 -7.15 -24.55 29.76 0c0,0 -26.77,1.41 -25.96,3.32 0.8,1.92 2.72,18.92 6.24,19.52z"/>
   <path class="fil58" d="M503.64 413.36l17.33 0c0.95,0 1.74,-0.64 1.8,-1.47l2.24 -27.92 -25.42 0 2.23 27.92c0.07,0.83 0.86,1.47 1.81,1.47z"/>
   <path class="fil56" d="M499.94 383.97l24.74 0c0.53,0 0.97,-0.43 0.97,-0.97l0 -0.67c0,-0.53 -0.43,-0.97 -0.97,-0.97l-24.74 0c-0.53,0 -0.97,0.43 -0.97,0.97l0 0.67c0,0.53 0.43,0.97 0.97,0.97z"/>
   <path class="fil56" d="M503.24 416.43l18.14 0c0.49,0 0.9,-0.4 0.9,-0.89l0 -1.29c0,-0.49 -0.4,-0.89 -0.9,-0.89l-18.14 0c-0.49,0 -0.89,0.4 -0.89,0.89l0 1.29c0,0.49 0.4,0.89 0.89,0.89z"/>
   <path class="fil59" d="M499.2 381.71l26.23 0c0.72,0 1.32,-0.6 1.32,-1.32l0 -0.91c0,-0.72 -0.6,-1.32 -1.32,-1.32l-26.23 0c-0.73,0 -1.32,0.6 -1.32,1.32l0 0.91c0,0.72 0.59,1.32 1.32,1.32z"/>
   <path class="fil60" d="M515.68 384.31c0,0 -0.79,1.77 -0.79,2.73l0 -2.73 0.79 0z"/>
   <path class="fil59" d="M519.53 384.45l5.02 0 -2.17 27.07c-0.06,0.8 -0.83,1.42 -1.75,1.42l-1.1 0 0 -28.49z"/>
   <path class="fil61" d="M515.74 401.75c-1.72,0 -2.27,-1.16 -3.18,-4.32 -0.58,-2.02 -1.98,-3.21 -2.9,-3.81 -0.25,-0.16 -0.13,-0.53 0.17,-0.53l0 0c7.27,0.08 6.51,8.61 6.51,8.61 -0.22,0.02 -0.41,0.04 -0.6,0.04z"/>
   <path class="fil62" d="M514.88 403.02c-7.01,-0.01 -6.62,-8.37 -6.62,-8.37 0.27,-0.04 0.51,-0.07 0.73,-0.07 1.62,0 2.21,1.16 3.22,4.21 0.66,1.99 2.11,3.13 3.06,3.69 0.26,0.15 0.15,0.53 -0.15,0.53 -0.08,0 -0.16,0.01 -0.24,0.01z"/>
   <path class="fil51" d="M780.66 697.22l-711.88 0c-6.6,0 -11.95,-5.35 -11.95,-11.95 0,-6.6 5.35,-11.95 11.95,-11.95l711.88 0c6.6,0 11.95,5.35 11.95,11.95 0,6.6 -5.35,11.95 -11.95,11.95z"/>
   <path class="fil51" d="M824.9 685.27c0,6.6 -5.35,11.95 -11.95,11.95 -6.6,0 -11.94,-5.35 -11.94,-11.95 0,-6.6 5.35,-11.95 11.94,-11.95 6.6,0 11.95,5.35 11.95,11.95z"/>
  </g>
 </g>
</svg>
